<?xml version="1.0" encoding="utf-8"?>
<!-- Generator: Adobe Illustrator 24.0.0, SVG Export Plug-In . SVG Version: 6.00 Build 0)  -->
<svg version="1.1" id="Layer_1" xmlns="http://www.w3.org/2000/svg" xmlns:xlink="http://www.w3.org/1999/xlink" x="0px" y="0px"
	 viewBox="0 0 602.1 644.7" style="enable-background:new 0 0 602.1 644.7;" xml:space="preserve">
<style type="text/css">
	.st0{fill-rule:evenodd;clip-rule:evenodd;fill:#FFFFFF;}
	.st1{fill:#FFFFFF;}
</style>
<path class="st0" d="M582.4,90.4l-61.5,61.8l-60-10.9l-10.8-60l61.5-61.8C497.8,5.6,478.1-0.7,463.5,0.1c-14.7,0.8-46,9-70.3,34.8
	C369.7,59.7,345,106,366.9,157.4c2.6,6.2,5.5,14.4-3.2,23.1c-2.9,2.9-28.9,27.4-62.6,59.3c-33.7-31.8-59.8-56.4-62.6-59.3
	c-8.7-8.7-5.8-16.9-3.2-23.1c21.9-51.4-2.8-97.7-26.4-122.5C184.6,9.1,153.3,0.8,138.6,0.1C124-0.7,104.3,5.6,90.5,19.5L152,81.2
	l-10.8,60l-60,10.9L19.7,90.4C4.1,105.9-0.8,124.6,0.1,138.6c0.9,14.2,6.1,41.8,34.7,70.5s83.8,46.1,122.6,26
	c5.6-2.8,13.8-5.9,23.1,3.2c3.3,3.2,27,28.3,57.7,60.9c-55.6,52.4-108.6,102.3-108.6,102.3c-21.1,18.2-19.6,51.8-0.1,71.5
	c19.8,19.5,53.2,20.7,71.4-0.3c0,0,48.5-51.7,100.1-106.6c51.6,54.9,100.1,106.6,100.1,106.6c18.2,21,51.6,19.8,71.4,0.3
	c19.5-19.6,21-53.3-0.1-71.5c0,0-53-49.9-108.6-102.3c30.7-32.6,54.4-57.6,57.7-60.9c9.2-9,17.5-6,23.1-3.2c38.8,20,94,2.6,122.6-26
	s33.9-56.3,34.7-70.5C602.9,124.6,598,105.9,582.4,90.4z M178.9,447.9c-6.9,6.8-18,6.8-24.7,0c-6.8-6.9-6.8-18,0-24.7
	c6.9-6.8,18-6.8,24.7,0C185.7,430.1,185.7,441.2,178.9,447.9z M423.2,423.2c6.8-6.8,17.9-6.8,24.7,0c6.8,6.8,6.8,17.9,0,24.7
	c-6.8,6.8-17.9,6.8-24.7,0C416.4,441.2,416.4,430.1,423.2,423.2z"/>
<polygon class="st1" points="267.6,644.7 291.8,560.1 310.3,644.7 332,560.1 353.1,644.7 377.4,584.4 481.6,584.4 481.6,573 
	369.4,573 356,604.4 332,512.5 311.8,597.2 294.6,512.3 270.4,598.7 251.8,512.3 226.4,573 120.6,573 120.6,584.4 235.4,584.4 
	247.6,553 "/>
</svg>
